<?xml version="1.0" encoding="UTF-8" standalone="no"?>
<svg
   class="svg-icon"
   style="overflow:hidden;fill:currentColor"
   viewBox="0 0 85 85"
   version="1.1"
   id="svg22"
   sodipodi:docname="language2.svg"
   width="85"
   height="85"
   inkscape:version="1.1.1 (3bf5ae0d25, 2021-09-20)"
   xmlns:inkscape="http://www.inkscape.org/namespaces/inkscape"
   xmlns:sodipodi="http://sodipodi.sourceforge.net/DTD/sodipodi-0.dtd"
   xmlns="http://www.w3.org/2000/svg"
   xmlns:svg="http://www.w3.org/2000/svg">
  <defs
     id="defs26" />
  <sodipodi:namedview
     id="namedview24"
     pagecolor="#ffffff"
     bordercolor="#666666"
     borderopacity="1.0"
     inkscape:pageshadow="2"
     inkscape:pageopacity="0.0"
     inkscape:pagecheckerboard="0"
     showgrid="false"
     width="85px"
     inkscape:zoom="0.8125"
     inkscape:cx="64"
     inkscape:cy="512.61538"
     inkscape:window-width="1920"
     inkscape:window-height="1017"
     inkscape:window-x="-8"
     inkscape:window-y="-8"
     inkscape:window-maximized="1"
     inkscape:current-layer="svg22" />
  <path
     d="m 42.09032,81.35226 c 3.23846,0 6.47692,-0.39988 9.71539,-1.20941 -0.39993,-0.80952 -1.20954,-1.2094 -2.42884,-0.80952 1.20954,-5.66667 2.01915,-8.49512 4.448,-10.92369 1.61924,-1.20941 2.42885,-3.2381 1.20956,-4.85715 -0.80962,-1.2094 -2.42885,-2.01893 -3.63841,-1.61904 -2.42885,0.39988 -0.80961,-2.82846 -2.82878,-3.2381 -2.01916,-0.39988 -4.8577,-4.44751 -7.68648,-5.66666 -1.61923,-0.80953 -3.23846,-2.82846 -5.66731,-2.82846 -2.01916,0 -5.25763,2.01893 -5.25763,0.39989 0,-4.85715 -0.39993,-8.09524 -0.39993,-9.71429 0,-1.20941 -0.80962,-0.39989 2.42884,-0.39989 1.61925,0 0.80962,-3.23809 2.42885,-3.23809 1.61925,0 5.25764,1.61905 6.06725,0.80952 0.80962,-0.39988 6.47694,14.57143 6.47694,2.42857 0,-1.61904 -0.80962,-4.04762 0,-5.25703 2.01916,-3.23809 4.04808,-6.87607 5.66732,-10.523805 -1.61924,-0.399891 -3.63841,-0.399891 -5.25763,0 -0.80963,0.399885 0.39992,1.619055 -0.80963,1.619055 -4.04808,0.80951 -7.68648,-1.20941 -6.47693,-3.238101 1.20955,-2.018931 6.06725,-0.809523 6.47693,-4.857143 0.39994,-2.428572 0.39994,-4.857144 0.39994,-6.876076 5.25763,0.809524 4.85769,-6.0665518 -2.01916,-7.685599 h -2.01917 c -18.62119,0 -34.4038326,12.952381 -38.051986,31.161789 1.6192344,1.61905 4.4480154,1.61905 5.667318,-0.39989 -0.399931,-0.39987 -0.399931,-0.39987 0,-0.80952 1.619233,1.20941 4.048082,1.20941 4.048082,3.23809 0,6.87608 0.399932,14.1618 6.476933,14.1618 2.428858,0.80952 4.048083,2.82845 4.857703,5.25702 0.39993,1.61905 2.82878,0 4.8577,0 1.20955,0 0,2.01894 0,6.06656 0,4.04761 9.30571,10.9237 9.30571,10.9237 0,2.42857 0,4.44749 0.39993,6.87606 -1.20955,0 -2.82878,0 -4.04808,0.39989 2.01916,0.80952 3.6384,0.80952 5.65757,0.80952 z M 78.52306,29.54274 c 0,0 -0.39993,0 -0.39993,-0.39989 -2.42885,-6.476181 -8.49609,-1.61904 -6.47693,3.63799 -11.33463,8.49512 -8.09617,14.57143 -4.44801,17.80952 2.01915,2.01894 3.63839,4.04762 4.8577,6.47619 -1.20955,3.2381 3.63839,2.42857 6.87686,-2.42857 1.61923,-4.04762 2.01916,-8.49513 2.01916,-12.95238 v -3.63798 c 0,-0.80953 0,-1.61905 -0.39993,-2.01893 -0.40968,-1.62881 -1.2193,-4.05738 -2.02892,-6.48595 z"
     id="path18"
     style="fill:#660033;fill-opacity:1;stroke-width:0.0975382" />
  <path
     d="M 42.5,85 C 19.021113,85 0,65.98106 0,42.50488 0,19.028686 19.021113,0 42.5,0 65.97888,0 85,19.018933 85,42.49512 85,65.97131 65.97888,85 42.5,85 Z m 0,-80.952381 c -21.050037,0 -38.451917,17.399878 -38.451917,38.447501 0,21.04762 17.40188,38.45726 38.451917,38.45726 21.05003,0 38.45191,-17.39989 38.45191,-38.4475 C 80.95191,21.457256 63.55003,4.047619 42.5,4.047619 Z"
     id="path20"
     style="fill:#660033;fill-opacity:1;stroke-width:0.0975382" />
</svg>
