<?xml version="1.0" encoding="UTF-8" standalone="no"?>
<svg
   width="75"
   height="85"
   viewBox="0 0 75 85"
   fill="none"
   version="1.1"
   id="svg1025"
   sodipodi:docname="timer.svg"
   inkscape:version="1.1.1 (3bf5ae0d25, 2021-09-20)"
   xmlns:inkscape="http://www.inkscape.org/namespaces/inkscape"
   xmlns:sodipodi="http://sodipodi.sourceforge.net/DTD/sodipodi-0.dtd"
   xmlns="http://www.w3.org/2000/svg"
   xmlns:svg="http://www.w3.org/2000/svg">
  <defs
     id="defs1029" />
  <sodipodi:namedview
     id="namedview1027"
     pagecolor="#ffffff"
     bordercolor="#666666"
     borderopacity="1.0"
     inkscape:pageshadow="2"
     inkscape:pageopacity="0.0"
     inkscape:pagecheckerboard="0"
     showgrid="false"
     inkscape:zoom="8.009901"
     inkscape:cx="50.936959"
     inkscape:cy="50.5"
     inkscape:window-width="1920"
     inkscape:window-height="1017"
     inkscape:window-x="-8"
     inkscape:window-y="-8"
     inkscape:window-maximized="1"
     inkscape:current-layer="svg1025"
     width="75px" />
  <path
     d="m 38.689699,47.467055 c -0.647665,-0.580652 -1.644006,-0.580652 -2.241811,0 -0.597804,0.580652 -0.597804,1.548375 0,2.177358 0.597805,0.58065 1.594146,0.58065 2.241811,0 0.647666,-0.580567 0.647666,-1.548291 0,-2.177358 z"
     fill="#660033"
     id="path1019"
     style="stroke-width:0.866553" />
  <path
     d="m 37.593901,16.644883 c -18.084156,0 -32.7806665,14.274033 -32.7806665,31.886643 0,17.612694 14.6965105,31.886642 32.8305275,31.886642 18.134019,0 32.830528,-14.273948 32.830528,-31.886642 C 70.424429,30.918916 55.727919,16.693299 37.593901,16.644883 Z m -1.544372,3.048419 c 0,-0.822646 0.697527,-1.500044 1.544372,-1.500044 0.846934,0 1.544372,0.677398 1.544372,1.500044 v 6.09667 c 0,0.82256 -0.697438,1.499957 -1.544372,1.499957 -0.846845,0 -1.544372,-0.677397 -1.544372,-1.499957 z M 14.17919,50.031569 H 7.9019965 c -0.8469161,0 -1.5443809,-0.677483 -1.5443809,-1.500043 0,-0.822562 0.6974648,-1.499961 1.5443809,-1.499961 H 14.17919 c 0.846846,0 1.544372,0.677399 1.544372,1.499961 0,0.82256 -0.697526,1.500043 -1.544372,1.500043 z m 25.008944,27.338265 c 0,0.822561 -0.697438,1.499959 -1.544372,1.499959 -0.846933,0 -1.544371,-0.677398 -1.544371,-1.499959 v -6.096669 c 0,-0.822562 0.697438,-1.499961 1.544371,-1.499961 0.846934,0 1.544372,0.677399 1.544372,1.499961 z M 42.32674,48.531526 c 0,2.322604 -1.793502,4.258052 -4.134947,4.548379 -2.391305,0.290324 -4.583343,-1.25805 -5.131374,-3.483823 -0.548032,-2.274191 0.747299,-4.548379 2.98911,-5.322526 V 33.338269 c 0,-0.822647 0.697527,-1.500045 1.544372,-1.500045 0.846934,0 1.544372,0.677398 1.544372,1.500045 v 10.886872 c 0.149496,0.04841 0.298991,0.09683 0.448397,0.193579 L 56.774121,27.725419 c 0.597804,-0.58065 1.594233,-0.58065 2.192038,0 0.597804,0.580652 0.597804,1.548375 0,2.129027 L 41.828481,46.596077 c 0.298991,0.580652 0.498259,1.25805 0.498259,1.935449 z m 25.008945,1.500043 h -6.277123 c -0.846934,0 -1.544372,-0.677483 -1.544372,-1.500043 0,-0.822562 0.697438,-1.499961 1.544372,-1.499961 h 6.277123 c 0.846933,0 1.544371,0.677399 1.544371,1.499961 0,0.82256 -0.697438,1.500043 -1.544371,1.500043 z"
     fill="#660033"
     id="path1021"
     style="stroke-width:0.866553" />
  <path
     d="m 40.632784,12.241751 c -0.846934,-0.04841 -1.494599,-0.774145 -1.444738,-1.645121 0,0 0,0 0,-0.04841 V 4.4999351 c 0,-0.8225695 0.697439,-1.4999763 1.544373,-1.4999763 h 1.544372 c 0.398536,0 0.797072,-0.1451628 1.096063,-0.43548 0.298901,-0.2903171 0.49817,-0.6774068 0.49817,-1.0644962 C 43.871024,0.67740953 43.173585,0 42.326651,0 h -9.415728 c -0.398536,0 -0.79716,0.14515884 -1.096062,0.43547771 -0.298903,0.29031803 -0.49817,0.67740679 -0.49817,1.06450489 0,0.822561 0.697438,1.4999762 1.544371,1.4999762 h 1.544372 c 0.846934,0 1.544373,0.6774068 1.544373,1.4999763 V 10.59663 c 0.04986,0.82256 -0.597804,1.548375 -1.444738,1.645121 -6.376757,0.483904 -12.554246,2.564516 -17.884889,6.048339 -0.04977,0.04833 -0.149495,0.04833 -0.199268,0.09675 -0.04986,0.04842 -0.09963,0.04842 -0.149495,0.04842 -0.149407,0.04833 -0.348676,0.09675 -0.547943,0.09675 -0.199268,0 -0.348764,-0.04841 -0.498259,-0.09675 -0.04977,0 -0.04977,0 -0.09963,-0.04842 -0.149408,-0.04842 -0.298903,-0.145164 -0.44831,-0.290325 0,0 0,0 -0.04986,0 l -3.63678,-3.532245 c -0.04977,-0.04833 -0.09963,-0.145162 -0.149407,-0.193494 -0.09963,-0.09683 -0.149495,-0.193577 -0.199268,-0.290324 0,-0.04841 -0.04986,-0.145163 -0.04986,-0.193581 -0.04977,-0.09675 -0.04977,-0.241908 -0.04977,-0.338655 0,-0.145163 0.04977,-0.241994 0.04977,-0.338742 0,-0.04842 0,-0.145162 0.04986,-0.193493 0.04977,-0.09683 0.09963,-0.193579 0.199268,-0.241996 0.04977,-0.09675 0.09963,-0.145162 0.149407,-0.241909 0.597893,-0.580651 0.597893,-1.548376 0,-2.129026 -0.298902,-0.290326 -0.697439,-0.4354889 -1.0959749,-0.4354889 -0.3985362,0 -0.7970725,0.1451629 -1.09601,0.4354889 l -4.4338659,4.306383 c -0.597822,0.580652 -0.597822,1.548376 0,2.129028 0.298911,0.290325 0.6974649,0.435488 1.09601,0.435488 0.3985539,0 0.797099,-0.145163 1.0960188,-0.435488 0.1494511,-0.145164 0.2989111,-0.24191 0.4483622,-0.290326 0.3487369,-0.145163 0.7472819,-0.193494 1.09601,-0.04832 0.249094,0.04832 0.4483709,0.193492 0.6476479,0.338655 l 3.1385959,3.048336 c 0.04977,0.04841 0.09963,0.145161 0.149408,0.241909 0.04986,0.09683 0.09963,0.193578 0.149495,0.241994 0.04977,0.09675 0.04977,0.193494 0.04977,0.290325 0.04986,0.09675 0.04986,0.193495 0.04986,0.290326 0,0.09675 -0.04986,0.193494 -0.04986,0.290242 0,0.09683 -0.04977,0.193578 -0.04977,0.290325 -0.04986,0.09683 -0.09963,0.145163 -0.149495,0.241994 -0.04977,0.09675 -0.09963,0.145164 -0.149408,0.241911 C -1.0654489,33.773672 -3.755657,52.741163 5.4109771,67.499016 14.577637,82.25687 33.110192,88.740527 49.849244,83.031013 66.588297,77.369834 76.950592,61.063605 74.708782,43.983232 72.566606,26.806025 58.268632,13.596548 40.632784,12.241751 Z m -3.038972,71.224752 c -19.877657,0 -35.9690529,-15.628745 -35.9690529,-34.934977 0,-19.306148 16.0913959,-34.934978 35.9690529,-34.934978 19.877659,0 35.969134,15.62883 35.969134,34.934978 0,19.257816 -16.091475,34.886645 -35.969134,34.934977 z"
     fill="#660033"
     id="path1023"
     style="stroke-width:0.866553" />
</svg>
